<?xml version="1.0" encoding="UTF-8"?>
<svg id="Layer_1" data-name="Layer 1" xmlns="http://www.w3.org/2000/svg" viewBox="0 0 794.32 771.98">
  <defs>
    <style>
      .cls-1 {
        fill: #c1272d;
      }

      .cls-2 {
        fill: #8c6239;
      }
    </style>
  </defs>
  <path d="M294.89.13c53.07,2.58,106.14,10.01,157.51,25.12,107.42,30.23,208.99,82.49,300.34,150.2,15.75,11.53,32.8,24.72,38.12,45.54,9.2,34.65-2.1,69.92-9.36,103.62-14.6,59.48-30.7,118.94-54.46,175.01-14.26,33.15-34.61,67.2-67.62,80.91,9.39,37.23,23.12,73.05,31.95,110.42,3.11,11.59-7.29,24.09-18.14,22.6-8.59-1.52-14.18-9.12-18.7-16.43-19.63-32.35-37.51-65.88-55.49-99.32-24.85,5.56-50.04,9.09-75.07,13.59-.53,8.23,2.1,17.72-2.93,24.89-5.13,7.57-15.64,11.16-23.46,6.25-8.83-4.96-11.01-16.46-13.94-25.78-21.26.89-42.3,4.85-63.53,6.34-16.6,2.98-33.49,1.86-50.12,4.73-16.79.23-33.57,2.27-50.36,1.15-10.48,40.38-18.62,81.48-30.51,121.43-2.71,10.24-9.58,21.37-20.51,21.42-11.71,1.69-20.48-11.56-18.73-23.26,4.26-41.93,9.42-83.8,15.94-125.39-25.3-3.18-49.59-11.85-72.78-22.94-8.25,22.8-16.33,45.69-25.67,68.03-3.51,8.43-8.78,18.41-18.6,18.5-12.8,1.49-20.72-14.4-17.4-26.36,6.09-29.63,13.33-58.97,20.38-88.31-16.92-14.71-32.59-31.29-45.06-50.56-29.45-44.4-50.04-94.88-66.96-146.1C17.85,306.23,2.07,234.13,0,160.8c.56-28.68,4.39-59.45,22.45-81.97,22.61-27.73,54.7-44.08,86.78-55.24C169.22,3.77,232.48-.88,294.89.13"/>
  <path class="cls-1" d="M472.04,39.68C370.28,7.64,261.74-.73,157.25,19.66c-29.08,6.28-58.63,13.74-84.46,30.11-21.79,13.8-36.66,40.41-35.67,67.89-1.01,31.78,13.03,61.32,28.89,87.1,16.57,26.04,33.94,51.48,50.2,77.72,6.62,10.5,11.47,22.26,18.52,32.38-5.43-20.74,6.28-47.81,27.88-50.1,19.13-1.58,36.37,12.1,47.67,27.56,2.85,2.9,3.83,8.92,7.08,10.55.8-4.99-4.04-8.35-5.77-12.53-14.87-27.79-38.07-48.3-58.42-71.13-17.93-19.47-36.31-40.38-44.32-67.06-6.38-20.51-4.97-45.57,9.23-62.01,21.47-25.9,53.39-37.54,84.06-44.4,48.23-10.78,98-10.58,146.69-4.02,99.87,12.96,195.1,53.63,281.72,107.7,18.75,12.68,37.91,24.72,55.84,38.78,11.12,9.21,22.4,20.25,25.49,35.68,4.47,26.87-1.76,53.98-6.73,80.25-6.2,29.57-11.97,59.34-21.76,87.82,1.33,1.18,3.94,3.5,5.24,4.67,5.72,21.68,2.1,44.31-1.38,66.02-2.71,20.28-12.64,40.67-30.81,49.13-34.42,16.75-72.36,22.11-109.2,29.37-41.31,6.48-82.63,13.54-124.31,15.95-24.79,3.13-50.2,4.19-74.81-1-13.57-2.87-25.62-11.79-32.64-24.64-14.37-.95-25.51-12.33-32.53-25.01-17.72-31.66-29.29-66.88-37.3-102.73-2.23-10.27-1.97-21.17-5.99-30.97-11.23-31.38-22.21-65.1-46.82-87.48-9.95-8.86-24.26-17.01-37.03-10.04-9.39,4.33-12.69,15.89-14.52,25.81-.96,12.53-.51,25.27,2.87,37.4,16.39,66.4,33.6,133.39,64.11,194.14,11.76,25.21,26.79,48.79,45.62,68.52,7.1,6.74,14.74,13.77,24.26,15.86,15.14,4.3,30.94,2.12,46.34,3.87,35.46-.46,70.79-3.24,106.01-6.97,56.29-5.94,112.72-12.07,168.13-24.87,19.95-4.59,40.22-8.6,59.24-16.81,18.67-8.03,33.23-24.12,44.35-41.76,15.72-25.18,25.46-53.89,35.81-81.91,17.56-52.77,32.24-106.75,43.81-161.41,3.01-18.99,7.85-38.72,2.82-57.76-3.41-18.13-16.47-31.58-29.87-41.93-86.17-64.99-181.86-115.47-282.73-147.73"/>
  <path class="cls-1" d="M458.36,76.39c-75.55-26.41-156.56-37.43-235.51-25.96-30.03,4.56-60.81,12.48-85.61,32.32-15.91,11.21-27.67,31.75-23.97,52.74,4.2,31.61,25.88,55.64,45.78,77.41,23.94,26.7,51.58,51.63,65.31,86.64,9.74,22.37,14.1,46.95,23.28,69.52,7.61-13.37,21.73-19.3,34.98-23.55,32.75-9.98,66.75-13.65,100.4-18.1,15.99-.54,31.76-4.24,47.8-3.24,28.31-1.32,56.69-3.21,85-.54,35.83.4,71.56,9.15,104.2,25.15,20.14,9.64,41.05,19.33,57.38,35.68,9.07-29.02,15.83-58.85,21.65-88.82,4.04-22.74,8.99-46.15,5.19-69.32-3.94-15.32-15.54-26.3-27.27-34.9-67.44-48.96-140.62-89.63-218.62-115.04"/>
  <path class="cls-1" d="M45.6,67.01c-8.19,4.42-13.89,13.45-19.74,20.94C5.59,117.86,5.99,157.38,9.58,192.57c4.81,63.38,20.32,125.19,39.24,185.22,21.15,61.89,47.11,124.27,90.61,171.88,28.54,27.48,62.54,49.7,100.05,59.2,5.43,1.46,10.75,3.21,15.75,5.88,2.08,1.63,2.53-1.72,3.33-3.01l-3.46,1.03c-23.68-21.8-42.06-49.65-55.76-79.65-13.97-29.08-25.86-59.28-35.38-90.37-11.2-33.3-20.86-67.2-29.02-101.5-19.61-60.52-65.26-105.03-91.75-161.53-13.81-29.66-20.01-66.02-7.45-97.37,2.53-5.56,4.55-12.19,9.87-15.34"/>
  <path class="cls-1" d="M616.62,356.71c-26.6-13.48-55.49-21.48-84.76-24.01-58.58-6.2-117.48-.49-175.68,6.6-27.96,4.45-56.45,7.86-83.08,18.56-8.73,3.04-15.35,10.15-20.62,17.98.19,5.02.35,10.24,2.79,14.71,16.71,35.56,32,71.9,50.17,106.66,4.44,8.43,8.54,17.24,14.58,24.52,15.51,2.44,31.39-2.01,47.01-2.58,72.68-7.26,145.22-16.89,217.5-28.37,16.25-2.61,32.59-5.36,48.36-10.35,9.82-3.01,18.83-9.78,23.04-20.05,7.98-18.01,11.09-37.89,17.11-56.64-96.01,18.56-193.4,26.24-290.23,37.86-25.75.86-51.29,7.43-77.09,5.54-.8-3.56.11-6.17,2.79-7.89,50.94-2.61,101.65-9.49,152.43-14.71,60.15-6.74,120.4-13.08,180.13-23.6,11.12-2.78,22.72-3.61,33.39-8.09-16.47-16.58-37.7-25.98-57.83-36.14"/>
  <path class="cls-1" d="M682.28,401.54c-10.99,24.72-9.76,56.44-28.68,77.09-13.14,12.13-31.47,12.99-47.65,16.92-79.54,13.77-159.64,23.17-239.69,32.32-13.83.34-27.51,3.73-41.42,2.52,7.37,13.94,22.98,17.72,36.58,19.82,32.19,2.09,64.46-.17,96.41-4.1,41.82-4.76,83.37-11.93,124.69-20.19,20.94-5.13,42.16-9.52,62.3-17.72,13.67-5.45,26.12-16.32,30.78-31.63,7.34-24.06,10.14-49.9,6.68-75.03"/>
  <path d="M254.11,405.33c-3.01,5.05,2,9.98,3.43,14.6,9.39,30.92,18.86,62.67,36.87,89.23,3.96,6.37,10.14,10.5,16.6,13.42-22.67-36.83-39.82-77.21-56.9-117.25"/>
  <path class="cls-2" d="M186.3,595.48c-10-5.08-19.05-12.02-28.49-18.18-5.61,28.57-13.7,56.56-18.81,85.24-1.22,4.88.93,9.52,2.39,14.02,8.3,6.34,15.67-2.95,18.06-11.16,9.07-23.26,18.62-46.29,26.84-69.92"/>
  <path class="cls-2" d="M682.49,685.13c-10.56-33.67-20.14-67.71-30.62-101.44-14.98,4.82-30.17,8.89-45.46,12.39,20.96,33.81,37.67,70.58,59.46,103.79,4.31,7.37,12.85,6.94,17.82.75-.19-5.16.32-10.5-1.2-15.49"/>
  <path class="cls-2" d="M515.98,612.17c-7.98,1.66-16.12,2.07-24.29,2.04,1.76,10.18,5.75,25.76,18.38,22.74,7.29-6.08,6.07-15.98,5.91-24.78"/>
  <path class="cls-2" d="M311.41,628.29c-13.43,1.15-26.58-1.72-39.88-3.13-1.44,25.87-6.22,51.4-8.81,77.18-1.76,18.24-6.25,36.54-4.26,54.98,1.76,6.8,9.44,6.88,14.42,4.88,5.88-4.67,7.95-12.53,10.11-19.62,10.93-37.66,19.37-76.09,28.41-114.29"/>
</svg>