<?xml version="1.0" encoding="UTF-8"?>
<svg id="Layer_1" data-name="Layer 1" xmlns="http://www.w3.org/2000/svg" viewBox="0 0 826.55 587.2">
  <defs>
    <style>
      .cls-1 {
        fill: gray;
      }

      .cls-2 {
        fill: #a67c52;
      }

      .cls-3 {
        fill: #666;
      }

      .cls-4 {
        fill: #c7b299;
      }

      .cls-5 {
        fill: #c1272d;
      }

      .cls-6 {
        fill: #8c6239;
      }

      .cls-7 {
        fill: #006837;
      }
    </style>
  </defs>
  <path d="M177.3,348.66c.45-.06,1.37-.17,1.83-.22-.05,5.65.4,11.3.76,16.93.47,7.11-.21,14.27.59,21.36.35,6.11.82,12.26.21,18.38,5.06-15.85,11.93-31.37,22.25-44.53.29-1.48,3.93-1.91,3.03.11-5.39,18.69-10.14,37.6-15.41,56.29,1.78-.95,1.92-3.22,3.07-4.72,7.6-11.56,15.74-23.06,26.4-32.02,1.62-1.49,3.35-3.12,5.69-3.2.05,3.1-2.12,5.53-3.42,8.19-10.58,19.74-18.42,40.87-24.7,62.35-.34,1.36-.94,2.63-1.77,3.76,1.2-.37,1.72-1.64,2.48-2.52,9.97-13.21,21.02-26.29,35.66-34.47,1.05,2.14-.68,4.02-1.61,5.81-5.54,9.69-11.13,19.36-16.52,29.14-5.38,9.75-10.01,19.94-16.18,29.23,7.12,1.55,15.39.76,21.38,5.7-3.04,20.16-7.87,40.05-11.77,60.08-1.43,6.12-2.08,13.35-7.21,17.62-8.63,4.84-18.91,4.85-28.53,5.01-27.52.18-55.05-.32-82.57.05-17.03.45-34.06-.33-51.1-.11-13.29-.07-26.59,0-39.88-.02.06-.6.19-1.8.26-2.4,16.65-.03,33.3.02,49.95-.06,26.88-.33,53.75.19,80.64-.06,16.73-.3,33.45.74,50.16-.31,5.05.1,10.06-.73,14.89-2.16,1.8-.62,3.82-1.18,4.93-2.87-4.81-.22-9.63.3-14.37,1-11.97,1.16-24.13,1.49-36.04-.45-4.4-.7-9.61-2.71-10.46-7.69-5.01-21.59-9.37-43.33-13.49-65.11-.94-2.62,2.14-4.03,4.08-4.84,5.48-1.81,11.31-2.69,17.08-2.45-7.59-10.99-15.43-21.83-22.63-33.1-6.36-9.48-12.81-18.88-18.95-28.51-2.05-3.33-4.66-6.37-6.14-10.03,3.63-.47,5.93,2.97,8.68,4.73,13.59,10.12,25.69,22.01,37.37,34.23-5.5-29.16-14.67-57.5-24.13-85.58-.29-1.29-2.01-3.8.4-4.04,1.72,1.05,2.8,2.79,3.96,4.38,10.41,14.29,19.39,29.56,27.23,45.39,3.13,5.6,5.4,11.67,8.86,17.08.58-12.87,2.67-25.65,4.81-38.35,2.52-12.54,5.19-25.21,10.2-37.01"/>
  <path class="cls-7" d="M176.11,364.07c-.74,4.57-2.39,8.9-3.32,13.43-3.94,17.93-6.4,36.21-7.97,54.54.4,1.42-1.45,4.26-2.37,1.74-9.84-20.47-18.98-41.55-31.79-60.16,2.06,6.9,4.62,13.64,6.36,20.65,5.28,18.99,10.94,37.97,13.76,57.6.24,1.44.48,4.91-1.8,3.43-3.34-3.38-6.43-7.03-9.71-10.47-8.11-8.93-16.92-17.09-26.06-24.79l1.49-.74c-.51.13-1.53.4-2.04.54,3.14,3.83,5.46,8.3,8.16,12.48,5.68,9.23,11.61,18.26,17.27,27.5,4.74,7.23,9.16,14.71,14.38,21.56,5.27.21,10.49-.83,15.74-.8,8.66-.38,17.31.4,25.95.84,2.01-3.35,3.92-6.76,5.64-10.3,7.66-15.52,15.29-31.1,24.03-45.97-9.4,7.33-17.39,16.78-24.36,26.75-2.6,3.18-4.55,7.09-7.9,9.48-2-.27-.59-3.02-.56-4.32,6.04-23.19,13.63-46.07,24.39-67.28-10.35,9.86-17.96,22.43-25.37,34.83-.81.95-1.85,3.33-3.32,1.99-.71-3.32.49-6.67,1.04-9.92,3.19-14.23,6.37-28.52,10.79-42.38-.13-.09-.4-.27-.54-.36-5.63,10.84-11.49,21.71-14.8,33.69-1.94,4.4-2.31,9.45-4.63,13.64l-.99-1.19c-.38-10.39.17-20.85-.62-31.25-.73-8.24-.05-16.56-.64-24.78h-.24"/>
  <path class="cls-2" d="M129.13,485.54c9.72,3.47,20.25,3.88,30.46,4.57,13.65,1.15,27.37.38,40.99-.72,5.76-1.1,12-1.05,17.19-4.06-2.14-1.88-5.14-1.89-7.78-2.53-4.1-.51-8.17-1.37-12.31-1.47-4.42,4.36-10.66,5.85-16.64,6.4-10.78.6-22.58.33-31.63-6.38-6.81.99-14.02.97-20.28,4.2"/>
  <path class="cls-4" d="M129.63,488.66c.23,1.95.45,3.92.89,5.85,3.8,18.02,7.41,36.07,11.34,54.05.6,2.31.99,5.24,3.38,6.42,4.74,2.29,10.1,2.39,15.22,3.07,9.36.99,18.7-.19,28.01-.94,4.86-1.14,9.87-.25,14.78-.81,1.15-2.26,1.57-4.8,2.21-7.22,4.3-20.14,8.15-40.38,12.62-60.48-9.07,2.65-18.49,3.72-27.9,4.13-13.24,1.46-26.53.17-39.76-.47-7-.81-14.03-1.6-20.8-3.6"/>
  <path d="M376.38,5.28c17.64-7.87,37.89-5.88,56.05-.92,16.82,4.06,32.72,11.07,48.22,18.64,27.84,14.21,53.23,33.29,74.36,56.31,16.77,17.82,31.26,37.89,42.43,59.69,10.98,21.23,18.23,44.57,19.61,68.51.12,108.26-.22,216.53.16,324.79,13.19.45,26.49,1.62,39.24,5.23,5.36,1.65,11.76,4.01,13.43,10.03,8.45.14,16.88,1.13,25.36.97,6.42-.05,12.79,1.08,19.23,1.13,16.27-.18,32.52,1.23,48.8.84,12.07.23,24.1-.97,36.18-.83,8.93.27,17.77-1.77,26.73-1.12,1.68,2.52-2.38,2.72-3.93,3.05-12.5.56-24.97,1.81-37.5,1.53-23.4,1.19-46.79.05-70.19-.17-5.69-.17-11.32-1.03-16.99-1.02-9.15.28-18.22-1.61-27.38-1.11-1.11,5.39-5.89,8.83-10.71,10.77-13.06,5.5-27.43,6.16-41.37,7.27-18.03.41-36.28-.11-53.83-4.63-6.1-1.55-12.62-3.41-16.85-8.38-2.81-2.65-2.32-6.99-1.51-10.4,2.27-4.59,7.57-6.44,12.13-7.92,15.09-4.26,30.84-4.8,46.41-5.36.33-96.51.05-193.03.15-289.54-.28-14.76.75-29.59-.99-44.3-1.04-13.01-5.23-25.53-10.06-37.58-10.23-25.63-25.64-49.02-44.35-69.26-11.78-13.89-25.85-25.61-40.33-36.56-26.38-18.81-56.07-33.48-87.84-40.44-13.83-2.7-29.06-3.5-41.82,3.51-8.88,4.31-14.97,12.86-17.82,22.12-1.87,5.36-1.67,11.09-2.42,16.64,17.29.87,34.76,1.14,51.71,5.12,3.72,1.02,8.83,2.75,9.23,7.27.02,20.84.02,41.69-.01,62.53-.09,3.49-4.02,4.66-6.76,5.48-11.13,2.72-22.64,3.47-34.05,3.7-18.09,1.3-36.28,1.29-54.36-.16-9.92-.28-19.83-1.5-29.64-3.07-3.27-.67-8.36-1.69-8.02-6.03-.53-18.13-.02-36.28-.23-54.41-.1-3.42.06-6.83.43-10.23,1.95-1.97,4.06-3.97,6.81-4.74,8.81-2.83,18.13-3.07,27.24-4.25,8.7-.09,17.37-1.21,26.08-1.3,1.48-6.31.51-12.97,2.44-19.23,3.03-14.22,13.37-26.29,26.56-32.21"/>
  <path class="cls-3" d="M385.94,5.43c-13.89,3.47-26.08,13.66-31.1,27.18-3.09,7.7-3.02,16.11-4.07,24.22,1.81-.02,3.66-.05,5.51-.07-.56-13.53,3.55-28.12,14.14-37.16,12.38-10.02,29.56-11.94,44.86-9.38,14.59,1.99,28.64,6.71,42.25,12.23,15.53,6.54,30.6,14.29,44.57,23.74,22.08,14.28,41.25,32.63,58.11,52.71,19.4,23.62,35.2,50.66,43.25,80.29,3.51,12.53,4.09,25.62,4.4,38.57-.12,47.57-.05,95.15-.03,142.73.16,57.32-.26,114.64.18,171.94,1.86,0,3.74,0,5.63.01.05-106.04.01-212.06.02-318.1.8-24.72-7.07-48.88-17.73-70.89-11.33-23.22-26.86-44.12-44.42-62.96-25.71-27.17-56.97-49.33-91.73-63.33-15.33-6.23-31.24-11.56-47.73-13.47-8.71-.18-17.66-.95-26.09,1.74"/>
  <path class="cls-1" d="M316.41,61.83c-8.58,1.19-17.57,1.5-25.45,5.47-1.13,2.4-1.26,5.06-1.16,7.67.32,18.73-.07,37.47.46,56.18,11.58-3.41,23.76-3.91,35.75-4.26,18.4-1.27,36.92-1.43,55.32-.02,11.73.43,23.74.62,35.02,4.21.33-20.9.06-41.81.15-62.72-4.66-3.97-11.07-4.02-16.76-5.25-27.61-3.59-55.63-3.81-83.34-1.29"/>
  <path d="M292.81,133.06c-1.2.15-.69,2.03.44,1.63,10.9.7,21.7,2.89,32.68,2.71,13.17,1.46,26.41.91,39.63,1.01,8.44.07,16.82-1.29,25.28-1.16,7.33-.49,14.57-1.96,21.91-2.45,1,.08,1.27-1.03,1.72-1.7-2.72.84-5.33-.6-7.98-.96-11.67-1.7-23.48-1.88-35.22-2.74-16.67.02-33.36-.59-49.96.99-9.59-.15-18.99,1.95-28.49,2.67"/>
  <path d="M556.67,541.4c-2.75,1.35-7.15,2.49-7.58,5.93,3.1,2.8,7.39,3.59,11.3,4.68,10.75,2.8,21.83,3.6,32.86,4.46,24.3.08,49.91,1.99,72.64-8.3.24-3.42-3.44-4.69-5.94-5.94-13.69-5.19-28.48-5.63-42.86-7.05.02,4.69.86,10.41-3.69,13.43-1.82-.01-3.65,0-5.45.03-1.18-1.22-2.32-2.47-3.42-3.74.08-3.3.06-6.58.02-9.87-16.05,1.13-32.38,1.57-47.87,6.37"/>
  <path d="M608.03,534.95c-.16,3.4-.22,6.8-.01,10.2,1.81-.06,3.64-.11,5.47-.17.14-3.34.17-6.68.16-10.02-1.89-.01-3.76-.01-5.62-.01"/>
  <path d="M642.62,558.04c-15.62,2.3-31.42,2.02-47.17,1.85-15.75-1.19-31.8-2.4-46.7-8.1,1.19,3.55,4.95,5.08,8.07,6.56,14.07,5.63,29.39,6.12,44.29,7.18,8.36-.18,16.78.54,25.08-.74,9.28-.74,18.64-1.71,27.57-4.46,5.05-1.79,10.85-3.86,13.35-9.06-7.65,3.82-16.07,5.7-24.48,6.78"/>
  <path d="M416.63,282.29c26.58-.4,53.52,1.44,79.07,9.27,13.66,4.41,27.33,10.87,36.96,21.82,7.69,8.89,9.32,21.05,9.56,32.38-.88,28.97-7.6,57.45-16.92,84.79-7.21,20.24-15.98,40.18-28.52,57.71-5.31,7.61-11.99,14.16-19.19,19.97,3,11.59,6.08,23.18,8.68,34.88,1.42,4.72-1.96,11-7.41,10.41-4.18-.03-6.42-3.98-7.92-7.31-3.98-8.83-7.42-17.87-10.93-26.87-9.88,4.38-20.22,7.81-31,9.06,2.78,16.43,4.97,32.97,6.79,49.53.75,4.62-2.99,9.86-7.98,9.19-4.66-.02-7.58-4.42-8.74-8.46-5.06-15.78-8.53-32.02-13-47.97-7.15.44-14.3-.36-21.45-.45-7.08-1.13-14.28-.69-21.35-1.87-9.04-.59-18-2.15-27.06-2.5-1.25,3.68-2.18,8.23-5.94,10.19-3.33,1.94-7.81.52-9.99-2.47-2.14-2.83-1.02-6.58-1.25-9.83-10.66-1.78-21.39-3.17-31.97-5.37-7.66,13.21-15.27,26.46-23.63,39.24-1.93,2.89-4.31,5.89-7.96,6.49-4.62.59-9.05-4.35-7.73-8.93,3.76-14.76,9.61-28.91,13.61-43.62-14.06-5.42-22.73-18.86-28.8-31.96-10.12-22.15-16.97-45.64-23.19-69.13-3.09-13.31-7.91-27.25-3.99-40.93,2.27-8.23,9.53-13.44,16.24-17.99,38.91-26.75,82.16-47.39,127.91-59.33,21.88-5.97,44.48-8.91,67.08-9.92"/>
  <path class="cls-5" d="M341.19,297.91c-42.96,12.75-83.72,32.69-120.41,58.36-5.71,4.09-11.27,9.4-12.72,16.56-2.14,7.52-.08,15.32,1.2,22.82,4.93,21.59,11.18,42.92,18.66,63.76,4.41,11.07,8.55,22.41,15.25,32.36,4.74,6.97,10.93,13.32,18.89,16.5,8.1,3.24,16.73,4.83,25.23,6.64,23.6,5.05,47.63,7.48,71.6,9.82,15,1.47,30.05,2.57,45.15,2.75,6.56-.69,13.29.17,19.74-1.53,4.06-.83,7.31-3.6,10.33-6.27,8.02-7.79,14.42-17.11,19.43-27.07,13-24,20.33-50.46,27.31-76.69,1.44-4.79,1.63-9.82,1.22-14.77-.78-3.92-2.19-8.49-6.19-10.2-5.44-2.75-11.53.46-15.77,3.97-10.48,8.84-15.16,22.16-19.94,34.56-1.71,3.87-1.6,8.18-2.55,12.24-3.41,14.16-8.34,28.08-15.88,40.58-2.99,5.01-7.74,9.51-13.86,9.88-2.99,5.08-8.12,8.6-13.9,9.73-10.48,2.05-21.3,1.63-31.86.4-17.75-.95-35.35-3.74-52.94-6.3-15.69-2.87-31.85-4.99-46.51-11.6-7.74-3.34-11.96-11.4-13.12-19.41-1.48-8.58-3.02-17.52-.59-26.08.56-.46,1.67-1.38,2.23-1.85-4.17-11.25-6.63-23.01-9.27-34.69-2.12-10.38-4.77-21.08-2.87-31.7,1.31-6.1,6.12-10.46,10.85-14.09,7.64-5.55,15.79-10.31,23.78-15.32,36.89-21.36,77.45-37.42,119.98-42.54,20.73-2.59,41.93-2.67,62.47,1.59,13.06,2.71,26.66,7.31,35.8,17.54,6.05,6.49,6.65,16.39,3.93,24.5-3.41,10.54-11.24,18.8-18.88,26.49-8.67,9.02-18.55,17.12-24.88,28.1-.74,1.65-2.8,2.98-2.46,4.95,1.38-.65,1.8-3.03,3.01-4.17,4.82-6.11,12.16-11.51,20.3-10.89,9.2.91,14.18,11.6,11.87,19.79,3-4,5.06-8.64,7.89-12.79,6.92-10.37,14.32-20.42,21.38-30.7,6.75-10.19,12.73-21.86,12.3-34.41.42-10.85-5.91-21.37-15.19-26.82-11-6.47-23.59-9.42-35.97-11.9-44.5-8.06-90.73-4.75-134.07,7.91"/>
  <path class="cls-5" d="M347.01,312.41c-33.22,10.04-64.39,26.1-93.11,45.44-5,3.4-9.94,7.74-11.61,13.79-1.62,9.15.49,18.4,2.21,27.38,2.48,11.84,5.36,23.62,9.22,35.09,6.96-6.46,15.86-10.29,24.44-14.09,13.9-6.32,29.12-9.78,44.38-9.94,12.06-1.05,24.14-.31,36.2.22,6.83-.4,13.55,1.07,20.36,1.28,14.33,1.76,28.81,3.21,42.76,7.15,5.64,1.68,11.66,4.02,14.9,9.3,3.91-8.92,5.77-18.63,9.91-27.46,5.85-13.83,17.62-23.68,27.81-34.23,8.47-8.6,17.71-18.09,19.5-30.58,1.57-8.29-3.43-16.41-10.21-20.84-10.56-7.84-23.67-10.97-36.46-12.77-33.63-4.53-68.13-.18-100.3,10.25"/>
  <path class="cls-5" d="M522.81,308.71c2.27,1.25,3.13,3.86,4.2,6.06,5.35,12.38,2.71,26.75-3.17,38.46-11.28,22.32-30.73,39.9-39.08,63.81-3.48,13.55-7.59,26.94-12.36,40.1-4.06,12.28-9.12,24.21-15.07,35.7-5.83,11.85-13.66,22.85-23.75,31.46l-1.47-.41c.34.51.53,1.84,1.42,1.19,2.13-1.05,4.4-1.74,6.71-2.32,15.98-3.75,30.45-12.53,42.61-23.38,18.52-18.81,29.58-43.45,38.59-67.9,8.06-23.71,14.66-48.13,16.71-73.17,1.53-13.9,1.7-29.51-6.93-41.33-2.49-2.96-4.92-6.53-8.41-8.27"/>
  <path class="cls-5" d="M279.61,423.15c-8.58,4.01-17.62,7.73-24.63,14.28,4.54,1.77,9.48,2.1,14.22,3.2,25.44,4.16,51.1,6.66,76.71,9.32,21.63,2.06,43.22,4.78,64.92,5.81,1.14.68,1.53,1.71,1.19,3.12-10.99.75-21.87-1.85-32.83-2.19-41.24-4.59-82.72-7.63-123.61-14.96,2.56,7.41,3.89,15.26,7.29,22.38,1.79,4.06,5.63,6.73,9.81,7.92,6.72,1.97,13.68,3.06,20.6,4.09,30.78,4.53,61.68,8.34,92.63,11.21,6.65.23,13.41,1.98,20.02,1.02,2.57-2.88,4.32-6.36,6.21-9.69,7.74-13.73,14.25-28.09,21.37-42.14,1.04-1.77,1.11-3.83,1.19-5.81-2.24-3.09-5.06-5.9-8.78-7.1-11.34-4.23-23.48-5.57-35.38-7.33-24.79-2.8-49.87-5.05-74.82-2.61-12.46,1-24.77,4.16-36.1,9.48"/>
  <path class="cls-5" d="M251.65,440.86c-1.47,9.92-.28,20.13,2.84,29.64,1.98,6.05,7.29,10.34,13.11,12.5,8.58,3.24,17.62,4.97,26.53,7,17.6,3.26,35.29,6.1,53.1,7.98,13.61,1.55,27.35,2.45,41.06,1.62,5.79-.83,12.44-2.32,15.58-7.83-5.93.48-11.75-.86-17.64-1-34.09-3.61-68.21-7.33-102.08-12.77-6.89-1.55-14.69-1.89-20.29-6.68-8.06-8.16-7.53-20.69-12.21-30.45"/>
  <path d="M434,442.35c-7.27,15.82-14.58,31.77-24.23,46.32,2.75-1.16,5.38-2.79,7.07-5.3,7.67-10.49,11.7-23.03,15.7-35.25.61-1.82,2.74-3.77,1.46-5.77"/>
  <path class="cls-6" d="M462.88,517.47c3.5,9.34,7.57,18.43,11.43,27.62,1.02,3.24,4.16,6.91,7.69,4.41.62-1.78,1.54-3.61,1.02-5.54-2.18-11.33-5.62-22.39-8.01-33.67-4.02,2.44-7.87,5.18-12.13,7.18"/>
  <path class="cls-6" d="M251.56,552.89c-.65,1.97-.43,4.08-.51,6.12,2.12,2.45,5.76,2.62,7.59-.29,9.28-13.12,16.39-27.64,25.32-41-6.51-1.38-12.98-2.99-19.36-4.89-4.46,13.32-8.54,26.77-13.04,40.07"/>
  <path class="cls-6" d="M322.47,524.07c-.07,3.48-.59,7.39,2.52,9.79,5.38,1.19,7.08-4.96,7.83-8.98-3.48.01-6.95-.15-10.34-.8"/>
  <path class="cls-6" d="M409.6,530.43c3.85,15.09,7.44,30.27,12.1,45.15.92,2.8,1.8,5.9,4.31,7.75,2.12.79,5.39.76,6.14-1.93.85-7.29-1.07-14.51-1.81-21.72-1.1-10.19-3.14-20.27-3.75-30.49-5.66.56-11.26,1.69-16.98,1.23"/>
  <path class="cls-7" d="M153.41,480.94c4.25,2.09,8.89,3.29,13.57,3.96,9.31.32,19.3.81,27.71-3.95-1.38-.62-2.92-.29-4.37-.38-12.31-.34-24.62-.25-36.91.36"/>
</svg>