<?xml version="1.0" encoding="UTF-8"?>
<svg id="Layer_1" data-name="Layer 1" xmlns="http://www.w3.org/2000/svg" viewBox="0 0 882.24 930.04">
  <defs>
    <style>
      .cls-1 {
        fill: gray;
      }

      .cls-2 {
        fill: #666;
      }
    </style>
  </defs>
  <path d="M146.42,8.63c28.83-12.87,61.93-9.61,91.61-1.5,27.5,6.63,53.48,18.09,78.82,30.46,45.5,23.22,87,54.41,121.54,92.04,27.41,29.13,51.09,61.93,69.35,97.56,17.94,34.7,29.8,72.85,32.06,111.98.2,176.95-.35,353.92.26,530.88,21.56.74,43.3,2.65,64.13,8.56,8.76,2.7,19.22,6.56,21.94,16.39,13.82.22,27.59,1.85,41.45,1.59,10.5-.07,20.91,1.76,31.43,1.85,26.59-.3,53.15,2.02,79.76,1.37,19.72.37,39.39-1.59,59.13-1.35,14.59.44,29.04-2.89,43.69-1.83,2.74,4.11-3.89,4.44-6.43,4.98-20.43.91-40.82,2.96-61.3,2.5-38.24,1.94-76.48.07-114.72-.28-9.3-.28-18.5-1.69-27.78-1.67-14.96.46-29.78-2.63-44.76-1.81-1.82,8.82-9.63,14.43-17.5,17.61-21.35,8.98-44.83,10.07-67.61,11.89-29.46.67-59.3-.19-87.98-7.57-9.96-2.54-20.63-5.57-27.54-13.7-4.59-4.33-3.8-11.43-2.46-17,3.7-7.5,12.37-10.52,19.83-12.94,24.67-6.96,50.41-7.85,75.85-8.76.54-157.74.07-315.51.24-473.25-.46-24.13,1.22-48.37-1.61-72.41-1.7-21.26-8.56-41.72-16.45-61.43-16.72-41.89-41.91-80.13-72.48-113.21-19.26-22.7-42.26-41.85-65.93-59.76-43.11-30.74-91.65-54.72-143.58-66.09-22.61-4.41-47.5-5.72-68.35,5.74-14.52,7.04-24.46,21.02-29.13,36.15-3.06,8.76-2.72,18.13-3.96,27.2,28.26,1.43,56.82,1.87,84.52,8.37,6.07,1.67,14.43,4.5,15.09,11.89.04,34.06.04,68.15-.02,102.21-.15,5.7-6.57,7.61-11.06,8.96-18.19,4.44-37,5.67-55.65,6.06-29.57,2.13-59.3,2.11-88.85-.26-16.22-.46-32.41-2.44-48.45-5.02-5.35-1.09-13.67-2.76-13.11-9.85-.87-29.63-.04-59.3-.37-88.93-.17-5.59.09-11.17.7-16.72,3.19-3.22,6.63-6.48,11.13-7.74,14.41-4.63,29.63-5.02,44.52-6.94,14.22-.15,28.39-1.98,42.63-2.13,2.43-10.32.83-21.2,3.98-31.43,4.94-23.24,21.85-42.96,43.41-52.65"/>
  <path class="cls-2" d="M162.05,8.87c-22.7,5.67-42.63,22.33-50.83,44.43-5.06,12.59-4.94,26.33-6.65,39.59,2.96-.04,5.98-.07,9-.11-.91-22.11,5.8-45.96,23.11-60.74,20.24-16.37,48.32-19.52,73.32-15.33,23.85,3.26,46.82,10.96,69.06,19.98,25.39,10.69,50.02,23.35,72.85,38.8,36.09,23.33,67.43,53.33,94.98,86.15,31.7,38.61,57.54,82.8,70.69,131.24,5.74,20.48,6.69,41.87,7.19,63.04-.2,77.76-.07,155.52-.06,233.3.26,93.69-.43,187.37.3,281.04,3.04,0,6.11,0,9.2.02.07-173.32.02-346.62.04-519.94,1.31-40.41-11.56-79.89-28.98-115.87-18.52-37.95-43.91-72.11-72.61-102.91-42.02-44.41-93.11-80.63-149.93-103.52-25.06-10.19-51.06-18.89-78.02-22.02-14.24-.3-28.87-1.56-42.65,2.85"/>
  <path class="cls-1" d="M48.4,101.06c-14.02,1.94-28.72,2.44-41.59,8.94-1.85,3.93-2.06,8.28-1.89,12.54.52,30.61-.11,61.24.76,91.84,18.93-5.57,38.83-6.39,58.43-6.96,30.07-2.07,60.35-2.33,90.43-.04,19.17.7,38.8,1.02,57.24,6.89.54-34.17.09-68.33.24-102.52-7.61-6.48-18.09-6.57-27.39-8.57-45.13-5.87-90.93-6.22-136.23-2.11"/>
  <path d="M9.83,217.49c-1.96.24-1.13,3.31.72,2.67,17.82,1.15,35.46,4.72,53.41,4.43,21.52,2.39,43.17,1.48,64.78,1.65,13.8.11,27.5-2.11,41.32-1.89,11.98-.8,23.82-3.2,35.82-4,1.63.13,2.07-1.69,2.82-2.78-4.44,1.37-8.7-.98-13.04-1.57-19.07-2.78-38.37-3.07-57.58-4.48-27.24.04-54.52-.96-81.67,1.61-15.67-.24-31.04,3.19-46.58,4.37"/>
  <path d="M441.12,884.93c-4.5,2.2-11.69,4.07-12.39,9.69,5.07,4.57,12.07,5.87,18.46,7.65,17.57,4.57,35.69,5.89,53.7,7.3,39.72.13,81.58,3.26,118.73-13.57.39-5.59-5.63-7.67-9.7-9.7-22.37-8.48-46.56-9.2-70.06-11.52.04,7.67,1.41,17.02-6.04,21.94-2.98-.02-5.96,0-8.91.06-1.93-2-3.8-4.04-5.59-6.11.13-5.39.09-10.76.04-16.13-26.24,1.85-52.93,2.57-78.24,10.41"/>
  <path d="M525.06,874.39c-.26,5.56-.35,11.11-.02,16.67,2.96-.09,5.94-.19,8.94-.28.22-5.46.28-10.93.26-16.37-3.09-.02-6.15-.02-9.19-.02"/>
  <path d="M581.6,912.13c-25.54,3.76-51.35,3.3-77.09,3.02-25.74-1.94-51.98-3.93-76.34-13.24,1.94,5.8,8.09,8.3,13.19,10.72,23,9.2,48.04,10,72.39,11.74,13.67-.3,27.43.89,41-1.2,15.17-1.2,30.46-2.8,45.06-7.3,8.26-2.93,17.74-6.31,21.82-14.82-12.5,6.24-26.26,9.32-40.02,11.07"/>
</svg>