<?xml version="1.0" encoding="UTF-8"?>
<svg id="Layer_1" data-name="Layer 1" xmlns="http://www.w3.org/2000/svg" viewBox="0 0 757.44 706.92">
  <defs>
    <style>
      .cls-1 {
        fill: #a67c52;
      }

      .cls-2 {
        fill: #c7b299;
      }

      .cls-3 {
        fill: #006837;
      }
    </style>
  </defs>
  <path d="M573.16.72c1.47-.18,4.44-.54,5.91-.72-.15,18.27,1.29,36.52,2.46,54.73,1.53,22.99-.69,46.12,1.92,69.05,1.14,19.74,2.64,39.64.69,59.41,16.35-51.25,38.56-101.39,71.93-143.94.93-4.77,12.69-6.18,9.78.36-17.43,60.4-32.77,121.56-49.81,181.96,5.76-3.06,6.21-10.41,9.93-15.24,24.58-37.36,50.89-74.54,85.34-103.52,5.22-4.83,10.83-10.08,18.39-10.35.15,10.02-6.84,17.88-11.04,26.47-34.21,63.82-59.53,132.12-79.85,201.56-1.11,4.41-3.03,8.49-5.73,12.15,3.87-1.2,5.55-5.31,8.01-8.16,32.23-42.7,67.94-84.98,115.29-111.42,3.39,6.9-2.19,12.99-5.19,18.78-17.91,31.33-35.98,62.59-53.41,94.19-17.4,31.51-32.35,64.45-52.3,94.49,23.02,5.01,49.75,2.46,69.11,18.42-9.81,65.17-25.45,129.48-38.05,194.2-4.62,19.77-6.72,43.15-23.32,56.95-27.91,15.63-61.12,15.69-92.21,16.2-88.97.57-177.94-1.02-266.91.15-55.06,1.47-110.1-1.08-165.19-.36-42.97-.24-85.94-.03-128.91-.06.21-1.95.63-5.82.84-7.77,53.83-.09,107.63.06,161.47-.21,86.9-1.08,173.77.6,260.67-.18,54.07-.96,108.14,2.4,162.16-.99,16.32.33,32.53-2.37,48.13-6.99,5.82-2.01,12.36-3.81,15.93-9.27-15.54-.72-31.12.96-46.45,3.24-38.71,3.75-78.02,4.8-116.52-1.44-14.22-2.25-31.06-8.76-33.82-24.85-16.2-69.8-30.28-140.07-43.6-210.47-3.03-8.46,6.93-13.02,13.2-15.63,17.7-5.85,36.55-8.7,55.21-7.92-24.55-35.53-49.87-70.58-73.16-107-20.55-30.64-41.41-61.03-61.24-92.15-6.63-10.77-15.06-20.58-19.83-32.44,11.73-1.53,19.17,9.6,28.06,15.3,43.93,32.71,83.06,71.15,120.81,110.67-17.79-94.25-47.41-185.86-78.02-276.66-.93-4.17-6.51-12.27,1.29-13.05,5.55,3.39,9.06,9.03,12.81,14.16,33.64,46.18,62.68,95.57,88.04,146.73,10.11,18.09,17.46,37.72,28.66,55.21,1.89-41.62,8.64-82.91,15.54-123.96,8.13-40.54,16.77-81.5,32.98-119.64"/>
  <path class="cls-3" d="M569.29,50.56c-2.4,14.78-7.71,28.78-10.74,43.42-12.75,57.97-20.68,117.07-25.75,176.31,1.31,4.59-4.69,13.77-7.66,5.63-31.82-66.16-61.36-134.32-102.77-194.49,6.68,22.3,14.93,44.08,20.57,66.77,17.06,61.39,35.37,122.76,44.47,186.21.79,4.65,1.55,15.89-5.8,11.09-10.79-10.92-20.79-22.71-31.39-33.83-26.21-28.87-54.71-55.24-84.25-80.13l4.82-2.38c-1.63.44-4.93,1.31-6.59,1.74,10.16,12.37,17.66,26.83,26.37,40.34,18.36,29.83,37.55,59.04,55.83,88.9,15.31,23.38,29.62,47.54,46.48,69.7,17.03.67,33.89-2.67,50.9-2.58,28.01-1.22,55.96,1.28,83.89,2.7,6.51-10.83,12.67-21.87,18.23-33.28,24.77-50.18,49.43-100.54,77.68-148.6-30.38,23.7-56.21,54.25-78.74,86.49-8.42,10.28-14.71,22.91-25.53,30.64-6.46-.87-1.91-9.76-1.8-13.97,19.54-74.96,44.06-148.92,78.85-217.49-33.46,31.89-58.06,72.52-82.01,112.59-2.62,3.08-5.97,10.77-10.74,6.45-2.29-10.75,1.58-21.55,3.35-32.06,10.33-46,20.6-92.21,34.88-136.99-.44-.29-1.31-.87-1.74-1.16-18.2,35.05-37.14,70.19-47.85,108.91-6.27,14.23-7.47,30.55-14.96,44.08l-3.19-3.86c-1.23-33.6.54-67.41-1.99-101.04-2.37-26.63-.16-53.52-2.07-80.1h-.76"/>
  <path class="cls-1" d="M417.43,443.2c31.42,11.22,65.45,12.54,98.45,14.76,44.14,3.72,88.49,1.23,132.51-2.34,18.6-3.54,38.8-3.39,55.57-13.11-6.93-6.06-16.62-6.12-25.15-8.19-13.26-1.65-26.41-4.44-39.79-4.74-14.28,14.1-34.45,18.9-53.8,20.67-34.84,1.95-72.98,1.08-102.23-20.61-22.03,3.21-45.31,3.12-65.57,13.56"/>
  <path class="cls-2" d="M419.05,453.31c.75,6.3,1.47,12.66,2.88,18.9,12.27,58.24,23.95,116.61,36.67,174.73,1.95,7.47,3.21,16.95,10.92,20.76,15.33,7.41,32.65,7.74,49.21,9.93,30.25,3.21,60.46-.63,90.56-3.03,15.72-3.69,31.9-.81,47.77-2.61,3.72-7.29,5.07-15.51,7.14-23.35,13.89-65.11,26.35-130.53,40.81-195.53-29.32,8.55-59.77,12.03-90.2,13.35-42.79,4.71-85.76.54-128.52-1.53-22.63-2.61-45.34-5.16-67.25-11.64"/>
  <path class="cls-3" d="M495.92,428.35c13.74,6.75,28.75,10.62,43.87,12.81,30.1,1.05,62.38,2.61,89.57-12.75-4.47-2.01-9.45-.93-14.13-1.23-39.79-1.11-79.58-.81-119.31,1.17"/>
</svg>